<?xml version="1.0" encoding="UTF-8" standalone="no"?><!DOCTYPE svg PUBLIC "-//W3C//DTD SVG 1.1//EN" "http://www.w3.org/Graphics/SVG/1.1/DTD/svg11.dtd"><svg width="100%" height="100%" viewBox="0 0 20 20" version="1.1" xmlns="http://www.w3.org/2000/svg" xmlns:xlink="http://www.w3.org/1999/xlink" xml:space="preserve" style="fill-rule:evenodd;clip-rule:evenodd;stroke-linejoin:round;stroke-miterlimit:1.5;"><g><rect x="2" y="2" width="16" height="16" style="fill:#fff;"/><path d="M2,18l5.28,-7.2l2.64,2.488l8.08,-9.688l0,14.4l-16,0" style="fill:#ef4631;"/><path d="M2,14.4l16,-7.2" style="fill:none;stroke:#3c3a3b;stroke-width:0.8px;stroke-dasharray:0.8,0.8;"/><g><path d="M5.287,8.2l-0.563,0l0,-3.584c-0.135,0.129 -0.312,0.258 -0.532,0.388c-0.22,0.128 -0.417,0.224 -0.592,0.289l0,-0.543c0.315,-0.147 0.589,-0.327 0.825,-0.538c0.235,-0.209 0.403,-0.415 0.499,-0.612l0.363,0l0,4.6Z" style="fill:#3c3a3b;fill-rule:nonzero;"/><path d="M9.684,7.66l0,0.54l-3.028,0c-0.004,-0.135 0.018,-0.266 0.066,-0.39c0.077,-0.206 0.201,-0.41 0.37,-0.61c0.169,-0.2 0.416,-0.431 0.736,-0.693c0.498,-0.409 0.834,-0.733 1.009,-0.971c0.175,-0.238 0.263,-0.464 0.263,-0.676c0,-0.224 -0.08,-0.411 -0.24,-0.565c-0.159,-0.153 -0.367,-0.229 -0.623,-0.229c-0.271,0 -0.488,0.082 -0.649,0.243c-0.163,0.163 -0.246,0.388 -0.248,0.675l-0.577,-0.06c0.04,-0.431 0.188,-0.76 0.447,-0.984c0.258,-0.227 0.604,-0.34 1.04,-0.34c0.44,0 0.787,0.122 1.043,0.365c0.256,0.245 0.385,0.546 0.385,0.907c0,0.183 -0.037,0.364 -0.113,0.54c-0.074,0.177 -0.199,0.364 -0.373,0.56c-0.173,0.196 -0.463,0.464 -0.868,0.807c-0.336,0.282 -0.552,0.474 -0.648,0.576c-0.096,0.101 -0.176,0.202 -0.239,0.305l2.247,0Z" style="fill:#3c3a3b;fill-rule:nonzero;"/><path d="M10.291,6.99l0.561,-0.074c0.065,0.319 0.176,0.548 0.331,0.688c0.156,0.142 0.344,0.212 0.567,0.212c0.264,0 0.488,-0.092 0.67,-0.276c0.183,-0.183 0.273,-0.409 0.273,-0.68c0,-0.259 -0.083,-0.472 -0.252,-0.64c-0.169,-0.168 -0.383,-0.251 -0.645,-0.251c-0.105,0 -0.238,0.02 -0.396,0.062l0.062,-0.493c0.038,0.003 0.069,0.006 0.091,0.006c0.24,0 0.455,-0.062 0.647,-0.188c0.192,-0.125 0.287,-0.318 0.287,-0.577c0,-0.207 -0.069,-0.378 -0.209,-0.513c-0.139,-0.135 -0.32,-0.204 -0.54,-0.204c-0.22,0 -0.401,0.07 -0.548,0.206c-0.146,0.138 -0.239,0.344 -0.281,0.619l-0.561,-0.099c0.068,-0.377 0.224,-0.67 0.468,-0.877c0.244,-0.207 0.547,-0.311 0.908,-0.311c0.251,0 0.481,0.053 0.692,0.161c0.211,0.107 0.372,0.253 0.483,0.439c0.111,0.186 0.167,0.382 0.167,0.59c0,0.198 -0.054,0.379 -0.159,0.542c-0.107,0.161 -0.264,0.291 -0.472,0.386c0.271,0.063 0.481,0.193 0.631,0.39c0.15,0.197 0.225,0.443 0.225,0.739c0,0.4 -0.146,0.739 -0.439,1.017c-0.29,0.278 -0.659,0.418 -1.104,0.418c-0.403,0 -0.736,-0.12 -1.002,-0.36c-0.266,-0.239 -0.418,-0.55 -0.455,-0.932l0,0Z" style="fill:#3c3a3b;fill-rule:nonzero;"/></g></g></svg>